<svg id="Layer_1" data-name="Layer 1" xmlns="http://www.w3.org/2000/svg" viewBox="0 0 704.17 210.67"><polygon points="110.51 39.77 110.51 19.44 107.41 20.49 107.41 39.77 110.51 39.77" fill="#0e9eaf"/><polygon points="20.3 25.77 56.07 37.9 91.84 25.77 107.41 20.49 110.51 19.44 112.14 18.88 56.07 0 0 18.88 20.3 25.77" fill="#141641"/><path d="M105.29,44.53V56.4a3.67,3.67,0,1,0,7.33,0V44.53A3.65,3.65,0,0,0,111.57,42h-5.22A3.66,3.66,0,0,0,105.29,44.53Z" fill="#0e9eaf"/><polygon points="105.88 39.77 105.88 41.96 106.35 41.96 111.57 41.96 112.03 41.96 112.03 39.77 110.51 39.77 107.41 39.77 105.88 39.77" fill="#01838e"/><path d="M47,50.55H65.58v98.13H47Z" fill="#141641"/><path d="M86,76.1h18.22v7.44a43.71,43.71,0,0,1,11.22-7.26,27,27,0,0,1,10.29-2A24.93,24.93,0,0,1,144,81.77q6.33,6.41,6.33,19v48h-18V116.9q0-13-1.17-17.26a11.81,11.81,0,0,0-4.06-6.5A11.4,11.4,0,0,0,120,90.91a13.39,13.39,0,0,0-9.48,3.7,19.77,19.77,0,0,0-5.5,10.23q-.8,3.39-.79,14.72v29.12H86Z" fill="#141641"/><path d="M171.52,49.35h18.21V76.1h10.81V91.78H189.73v56.9H171.52V91.78h-9.34V76.1h9.34Z" fill="#141641"/><path d="M284.36,117.66h-58.5A19.46,19.46,0,0,0,232.63,130q5.51,4.58,14,4.57a24.29,24.29,0,0,0,17.55-7.14l15.34,7.21a36.33,36.33,0,0,1-13.74,12q-8,3.9-19,3.9-17.07,0-27.82-10.77t-10.74-27q0-16.61,10.71-27.58t26.85-11q17.15,0,27.89,11t10.74,29Zm-18.21-14.34A18.24,18.24,0,0,0,259,93.45a20.6,20.6,0,0,0-12.33-3.81,21.82,21.82,0,0,0-13.36,4.27q-3.61,2.67-6.68,9.41Z" fill="#141641"/><path d="M298.47,48.08h18.21v100.6H298.47Z" fill="#141641"/><path d="M332.59,48.08H350.8v100.6H332.59Z" fill="#141641"/><path d="M366.72,76.11v72.58h18.19V76.11Z" fill="#141641"/><path d="M387.45,51.56a11.29,11.29,0,0,1-3.39,8.31,11,11,0,0,1-8.12,3.43,11.12,11.12,0,0,1-8.28-3.49,11.78,11.78,0,0,1-3.42-8.51A11.55,11.55,0,0,1,384,43.15,11.54,11.54,0,0,1,387.45,51.56Z" fill="#0e9eaf"/><path d="M404.77,50.55h19.81q16.08,0,23.19,3A23.62,23.62,0,0,1,459,63.13,29.68,29.68,0,0,1,463.08,79q0,10.27-5.37,17.07a27.85,27.85,0,0,1-14.58,9.48q-5.4,1.53-19.68,1.53v41.56H404.77Zm18.68,38.36h5.94c4.67,0,7.91-.33,9.74-1a8.66,8.66,0,0,0,4.3-3.32A9.68,9.68,0,0,0,445,79q0-5.69-4.41-8.3-3.19-1.94-11.87-1.94h-5.27Z" fill="#141641"/><path d="M492.24,50.55h18.2L533.19,119l23-68.45h18.19l16.46,98.13H572.74l-10.53-62-20.85,62H524.9l-20.66-62-10.78,62H475.25Z" fill="#141641"/><path d="M653.37,48.08q20.83,0,35.82,15.08t15,36.76q0,21.48-14.78,36.36a48.74,48.74,0,0,1-35.88,14.87q-22.11,0-36.72-15.27a50.71,50.71,0,0,1-14.62-36.3A51,51,0,0,1,627.7,55,50.29,50.29,0,0,1,653.37,48.08Zm-.2,18.28a30.8,30.8,0,0,0-22.9,9.47Q621,85.31,621,99.92q0,16.27,11.69,25.75a32.07,32.07,0,0,0,20.84,7.4,30.43,30.43,0,0,0,22.63-9.6q9.36-9.61,9.35-23.69a32.79,32.79,0,0,0-9.41-23.71A30.74,30.74,0,0,0,653.17,66.36Z" fill="#141641"/><path d="M127,178.52h14.2v4.62h-8.79v4.53h8.79v4.56h-8.79v11.22H127Z" fill="#4c5564"/><path d="M148,178.52h5.84l5.34,9,5.31-9h5.77l-8.37,14.13v10.8h-5.48v-10.8Z" fill="#4c5564"/><path d="M178.7,178.52h5.78a21.76,21.76,0,0,1,6.76.75,6.71,6.71,0,0,1,3.26,2.44,6.8,6.8,0,0,1,1.2,4,6.19,6.19,0,0,1-1.57,4.34,8.29,8.29,0,0,1-4.25,2.41,27.87,27.87,0,0,1-5.73.39v10.56H178.7Zm5.45,9.74h1.73a10.73,10.73,0,0,0,2.84-.25,2.44,2.44,0,0,0,1.25-.85,2.38,2.38,0,0,0-.82-3.52,8.28,8.28,0,0,0-3.47-.5h-1.53Z" fill="#4c5564"/><path d="M222.9,178.52h5.31l6.63,17.38,6.69-17.38h5.3l4.79,24.93h-5.26l-3.07-15.75-6.07,15.75h-4.8l-6-15.75-3.14,15.75H218Z" fill="#4c5564"/><path d="M275,185h5.31v18.44H275V201.5a10.22,10.22,0,0,1-3.12,1.85,9.79,9.79,0,0,1-3.38.57,10,10,0,0,1-7.09-2.77,9,9,0,0,1-3-6.89,9.19,9.19,0,0,1,2.89-7,9.87,9.87,0,0,1,7-2.73,10,10,0,0,1,3.57.63A9.72,9.72,0,0,1,275,187Zm-5.58,3.79a5.78,5.78,0,0,0-4.09,1.52,5.1,5.1,0,0,0-1.63,3.89,5.16,5.16,0,0,0,1.66,3.93,5.77,5.77,0,0,0,4.08,1.54,5.89,5.89,0,0,0,4.15-1.51,5.15,5.15,0,0,0,1.64-4,5,5,0,0,0-1.64-3.89A6,6,0,0,0,269.39,188.8Z" fill="#4c5564"/><path d="M289.63,185h5.3v1.89a13.18,13.18,0,0,1,3.28-1.85,9,9,0,0,1,3-.52,7.82,7.82,0,0,1,5.34,1.92,6.07,6.07,0,0,1,1.85,4.81v12.19h-5.25v-8.08a17.62,17.62,0,0,0-.34-4.38,3,3,0,0,0-1.18-1.65,3.67,3.67,0,0,0-2.09-.57,4.22,4.22,0,0,0-2.76.94,4.82,4.82,0,0,0-1.6,2.6,17.71,17.71,0,0,0-.24,3.74v7.4h-5.3Z" fill="#4c5564"/><path d="M333.12,185h5.3v18.44h-5.3V201.5a10.46,10.46,0,0,1-3.12,1.85,9.81,9.81,0,0,1-3.39.57,10.08,10.08,0,0,1-7.09-2.77,9,9,0,0,1-3-6.89,9.22,9.22,0,0,1,2.89-7,9.88,9.88,0,0,1,7-2.73,10.1,10.1,0,0,1,3.58.63,10,10,0,0,1,3.09,1.88Zm-5.58,3.79a5.77,5.77,0,0,0-4.09,1.52,5.07,5.07,0,0,0-1.63,3.89,5.12,5.12,0,0,0,1.66,3.93,5.74,5.74,0,0,0,4.08,1.54,5.88,5.88,0,0,0,4.14-1.51,5.15,5.15,0,0,0,1.65-4,5,5,0,0,0-1.65-3.89A5.94,5.94,0,0,0,327.54,188.8Z" fill="#4c5564"/><path d="M363.4,185h5.29V200.8c0,3.12-.72,5.42-2.16,6.88q-2.89,3-8.73,3a17.47,17.47,0,0,1-5.23-.68,9.68,9.68,0,0,1-3.57-2,7.84,7.84,0,0,1-2.16-3.2h5.85a4.9,4.9,0,0,0,2,1.18,9.28,9.28,0,0,0,2.9.4,8.52,8.52,0,0,0,3.44-.58,3.81,3.81,0,0,0,1.84-1.49,6.77,6.77,0,0,0,.53-3.15,8.87,8.87,0,0,1-2.93,1.75,10.5,10.5,0,0,1-3.48.54,10.33,10.33,0,0,1-7.2-2.68,9.43,9.43,0,0,1,.18-13.83,10,10,0,0,1,6.72-2.41,10.18,10.18,0,0,1,3.46.59A11.21,11.21,0,0,1,363.4,187Zm-5.5,3.84a6,6,0,0,0-4.14,1.47,4.75,4.75,0,0,0-1.63,3.69,4.81,4.81,0,0,0,1.67,3.78,6.11,6.11,0,0,0,4.2,1.47,5.87,5.87,0,0,0,4.07-1.44,4.83,4.83,0,0,0,1.6-3.78,4.75,4.75,0,0,0-1.61-3.74A6,6,0,0,0,357.9,188.85Z" fill="#4c5564"/><path d="M399.23,195.57H382.18a4.81,4.81,0,0,0,2,3.12,6.79,6.79,0,0,0,4.1,1.16,7.64,7.64,0,0,0,5.11-1.81l4.47,1.83a10.23,10.23,0,0,1-4,3.06,14.19,14.19,0,0,1-5.55,1,11.83,11.83,0,0,1-8.1-2.74,8.71,8.71,0,0,1-3.13-6.85,9,9,0,0,1,3.12-7,11.3,11.3,0,0,1,7.82-2.79,11.77,11.77,0,0,1,8.13,2.79,9.37,9.37,0,0,1,3.13,7.36Zm-5.31-3.65a4.74,4.74,0,0,0-2.07-2.51,6.67,6.67,0,0,0-3.59-1,7.05,7.05,0,0,0-3.9,1.08,6.19,6.19,0,0,0-1.95,2.39Z" fill="#4c5564"/><path d="M407.47,185h5.31v2.12a9.1,9.1,0,0,1,3-1.95,10,10,0,0,1,3.63-.65,7.54,7.54,0,0,1,3.58.85,6.55,6.55,0,0,1,2.57,2.47,8.36,8.36,0,0,1,3.1-2.47,9.59,9.59,0,0,1,4-.85,8.28,8.28,0,0,1,4,.92,5.58,5.58,0,0,1,2.46,2.39,11.23,11.23,0,0,1,.75,4.79v10.82h-5.35v-9.36c0-2.09-.29-3.5-.89-4.24a3.24,3.24,0,0,0-2.68-1.11,4.5,4.5,0,0,0-2.44.67,4.16,4.16,0,0,0-1.61,1.88,10.22,10.22,0,0,0-.52,3.84v8.32H421v-8.93a11.05,11.05,0,0,0-.42-3.59,3.29,3.29,0,0,0-1.25-1.65,3.68,3.68,0,0,0-2-.54,4.39,4.39,0,0,0-2.41.68,4.22,4.22,0,0,0-1.62,1.93,10.59,10.59,0,0,0-.53,3.89v8.21h-5.31Z" fill="#4c5564"/><path d="M470.11,195.57H453.06a4.77,4.77,0,0,0,2,3.12,6.78,6.78,0,0,0,4.09,1.16,7.65,7.65,0,0,0,5.12-1.81l4.47,1.83a10.26,10.26,0,0,1-4,3.06,14.1,14.1,0,0,1-5.54,1,11.83,11.83,0,0,1-8.1-2.74,8.71,8.71,0,0,1-3.13-6.85,9,9,0,0,1,3.12-7,11.3,11.3,0,0,1,7.82-2.79,11.77,11.77,0,0,1,8.13,2.79,9.37,9.37,0,0,1,3.13,7.36Zm-5.31-3.65a4.74,4.74,0,0,0-2.07-2.51,6.7,6.7,0,0,0-3.6-1,7,7,0,0,0-3.89,1.08,6.19,6.19,0,0,0-1.95,2.39Z" fill="#4c5564"/><path d="M478.39,185h5.31v1.89a13,13,0,0,1,3.27-1.85,9.1,9.1,0,0,1,3-.52,7.85,7.85,0,0,1,5.34,1.92,6.07,6.07,0,0,1,1.84,4.81v12.19H491.9v-8.08a17.62,17.62,0,0,0-.34-4.38,3,3,0,0,0-1.18-1.65,3.65,3.65,0,0,0-2.09-.57,4.22,4.22,0,0,0-2.76.94,4.88,4.88,0,0,0-1.6,2.6,18,18,0,0,0-.23,3.74v7.4h-5.31Z" fill="#4c5564"/><path d="M506.91,178.21h5.3V185h3.15v4h-3.15v14.46h-5.3V189h-2.73v-4h2.73Z" fill="#4c5564"/><path d="M552.9,181.91l-4,3.1q-2.13-2.58-4.33-2.58a2.92,2.92,0,0,0-1.75.5,1.41,1.41,0,0,0-.68,1.13,1.74,1.74,0,0,0,.49,1.18,34.83,34.83,0,0,0,4,3.21c2.08,1.51,3.34,2.47,3.78,2.86a10.06,10.06,0,0,1,2.34,2.79,6.48,6.48,0,0,1-1.74,8,9.61,9.61,0,0,1-6.34,2,10.52,10.52,0,0,1-5.33-1.3,10.85,10.85,0,0,1-3.88-4.1l4.58-2.41c1.37,2.2,3,3.31,4.75,3.31a3.78,3.78,0,0,0,2.35-.72,2,2,0,0,0,1-1.64,2.62,2.62,0,0,0-.72-1.69,19.77,19.77,0,0,0-3.18-2.6,30.16,30.16,0,0,1-6-5.12,6,6,0,0,1-1.37-3.61,5.61,5.61,0,0,1,2.27-4.45,8.59,8.59,0,0,1,5.6-1.85,10,10,0,0,1,4.07.86A14.51,14.51,0,0,1,552.9,181.91Z" fill="#4c5564"/><path d="M559.65,185h5.42l5.5,11.57L576.63,185h5.44l-13.25,25.18h-5.48l4.35-8.12Z" fill="#4c5564"/><path d="M602,187.58l-3.28,2.87a5.89,5.89,0,0,0-3.64-1.73,2.54,2.54,0,0,0-1.4.33,1,1,0,0,0-.5.82.93.93,0,0,0,.32.69,6,6,0,0,0,1.58.85l1.94.85a11.33,11.33,0,0,1,4.22,2.7,4.82,4.82,0,0,1,1.15,3.22,5.05,5.05,0,0,1-2.07,4.1,8.71,8.71,0,0,1-5.55,1.64,9.34,9.34,0,0,1-7.39-3.15l3.27-3.1a7.43,7.43,0,0,0,2.19,1.53,5.34,5.34,0,0,0,2.22.59,2.94,2.94,0,0,0,1.69-.44,1.25,1.25,0,0,0,.64-1c0-.71-.77-1.41-2.31-2.09l-1.79-.78q-5.13-2.25-5.13-5.64a4.65,4.65,0,0,1,1.93-3.74,7.69,7.69,0,0,1,4.95-1.55,9.72,9.72,0,0,1,3.88.79A8.47,8.47,0,0,1,602,187.58Z" fill="#4c5564"/><path d="M611.21,178.21h5.31V185h3.15v4h-3.15v14.46h-5.31V189h-2.72v-4h2.72Z" fill="#4c5564"/><path d="M647.69,195.57H630.63a4.82,4.82,0,0,0,2,3.12,6.76,6.76,0,0,0,4.09,1.16,7.63,7.63,0,0,0,5.11-1.81l4.47,1.83a10.16,10.16,0,0,1-4,3.06,14.13,14.13,0,0,1-5.54,1,11.85,11.85,0,0,1-8.11-2.74,8.71,8.71,0,0,1-3.13-6.85,9,9,0,0,1,3.12-7,11.31,11.31,0,0,1,7.83-2.79,11.73,11.73,0,0,1,8.12,2.79,9.37,9.37,0,0,1,3.13,7.36Zm-5.31-3.65a4.72,4.72,0,0,0-2.08-2.51,6.67,6.67,0,0,0-3.59-1,7.05,7.05,0,0,0-3.9,1.08,6.09,6.09,0,0,0-1.94,2.39Z" fill="#4c5564"/><path d="M655.92,185h5.31v2.12a9.14,9.14,0,0,1,3-1.95,10,10,0,0,1,3.63-.65,7.6,7.6,0,0,1,3.58.85,6.53,6.53,0,0,1,2.56,2.47,8.39,8.39,0,0,1,3.11-2.47,9.53,9.53,0,0,1,4-.85,8.27,8.27,0,0,1,4,.92,5.56,5.56,0,0,1,2.47,2.39,11.42,11.42,0,0,1,.74,4.79v10.82H683v-9.36c0-2.09-.3-3.5-.9-4.24a3.23,3.23,0,0,0-2.68-1.11,4.5,4.5,0,0,0-2.44.67,4.14,4.14,0,0,0-1.6,1.88,10.18,10.18,0,0,0-.53,3.84v8.32h-5.35v-8.93a11.11,11.11,0,0,0-.41-3.59,3.25,3.25,0,0,0-1.26-1.65,3.68,3.68,0,0,0-2-.54,4.36,4.36,0,0,0-2.4.68,4.16,4.16,0,0,0-1.62,1.93,10.34,10.34,0,0,0-.54,3.89v8.21h-5.31Z" fill="#4c5564"/></svg>